#!OML:ASF F:\VICON\USERDATA\INSTALL\rory3\rory3.ASF
:FULLY-SPECIFIED
:DEGREES
80
root 0.6532363817358627 18.051723206745983 32.09825108068145 2.167216095301534 -2.534316703866338 0.22869550562231433
lfemur -6.451903264120862 3.244246352785822 -23.2747285990029
ltibia 47.17356252130397
lfoot 2.9448852407886923 -8.850034267959497
ltoes -5.1272427302357215
rfemur -30.821975139123772 2.90035439447336 26.3071217026714
rtibia 41.66345778573405
rfoot -0.011280572574156267 -5.2927689049638875
rtoes 0.963521425238249
lowerback 13.46686322116225 -0.7433081117475479 -0.26752823488356237
upperback -1.7390796062119842 -1.360657253081381 1.7483925587249254
thorax -9.190531799912787 0.06964079631979236 1.7393976597304324
lowerneck -20.020669064050246 -3.4840895338868885 -2.5745047791976305
upperneck 13.008306846421236 -4.902338382192422 4.956728544411603
head 7.419384362116271 -2.3460910930436687 1.4316883723708134
lclavicle 2.9801515526439752e-15 1.1900897868484632e-16
lhumerus -44.33692593024098 -13.836465685538307 96.13260589824147
lradius 111.23376307643831
lwrist 34.578431457363386
lhand -20.797889642989286 2.794647418307478
lfingers 7.125019999999999
lthumb 5.715967108310971 32.34664936170608
rclavicle 2.9801381671163078e-15 1.1900166246856291e-16
rhumerus -59.7057174204469 8.002500765301278 -96.74477807617244
rradius 110.2012116197648
rwrist -15.345083245702538
rhand -15.740352595704872 38.50424005920007
rfingers 7.125019999999999
rthumb 10.549744196687625 8.462995863566752
81
root 0.6606793261265749 18.03032912754565 32.71781491458827 1.9489634057291743 -2.5734798362877296 0.40966943621938734
lfemur -5.994853539343245 3.731252779883631 -22.689987220541198
ltibia 53.569283727290326
lfoot 3.7025012242118205 -9.427341310616539
ltoes -4.871255522587114
rfemur -28.825123160304813 3.1931770219930664 26.814991644940577
rtibia 41.89793184516684
rfoot 0.5447814189583662 -5.219803896145934
rtoes 0.6621035968214187
lowerback 13.669295930360102 -0.6748302841448123 -0.23093032979032113
upperback -1.588328605209078 -1.223712144459034 1.7975784671095616
thorax -9.124148922218199 0.16180747836741693 1.764458034889769
lowerneck -19.954274977914793 -3.368905059122416 -2.5209598126986816
upperneck 12.964520140355738 -4.9363307093190745 4.952928748573079
head 7.400352484779167 -2.3610550908214054 1.4154733870121277
lclavicle 2.9801515526439752e-15 1.1900897868484632e-16
lhumerus -43.73127620587965 -13.37435448856761 96.41889651516865
lradius 110.53880933905506
lwrist 34.288160183101134
lhand -20.825850000072272 2.7711641956299973
lfingers 7.125019999999999
lthumb 5.698551361848295 32.246001702459274
rclavicle 2.9801381671163078e-15 1.1900166246856291e-16
rhumerus -59.10997325778965 7.628438321027683 -96.43967018293039
rradius 110.37205350920017
rwrist -15.373306944875045
rhand -15.739580998249645 38.50432900831945
rfingers 7.125019999999999
rthumb 10.562234532345226 8.411564140213658
82
root 0.6655493473457107 17.99914746518364 33.68390159676424 1.703454496584313 -2.5925161076863508 0.5635896211850793
lfemur -9.691455798172287 3.1279400707858653 -23.266133205333155
ltibia 60.42756869331526
lfoot 3.7220257779340766 -10.463204074976009
ltoes -4.949028967147081
rfemur -25.733039249758917 4.0492991469734845 27.89747602369483
rtibia 43.07974528857869
rfoot 0.7856094285055177 -5.066276886874274
rtoes 0.62948418962208
lowerback 13.902744563400093 -0.5736820987256807 -0.15014307474238198
upperback -1.3855460316808306 -0.9199214904709483 1.8610119095734627
thorax -9.178573564490863 0.12931001150263444 1.386994551734436
lowerneck -20.060028197072935 -3.439391304005814 -2.5305297299494085
upperneck 12.862326941112196 -5.037891221131853 4.881816583275029
head 7.391516939283829 -2.372880985931603 1.4044290105825126
lclavicle 2.9801515526439752e-15 1.1900897868484632e-16
lhumerus -44.233652611371994 -13.617441106117129 96.43831998281523
lradius 110.58773905894047
lwrist 34.35363153122976
lhand -20.81870597401317 2.799618409134285
lfingers 7.125019999999999
lthumb 5.717344408707283 32.22227323623588
rclavicle 2.9801381671163078e-15 1.1900166246856291e-16
rhumerus -58.19219750906524 7.33185047747939 -96.16487654911465
rradius 110.46716270749647
rwrist -15.376451332273986
rhand -15.706261957872792 38.51367333844467
rfingers 7.125019999999999
rthumb 10.556964496983914 8.365434658711681
83
root 0.6635006996405256 17.933775760331745 33.92458949642244 1.3746504057234963 -2.726352474586709 0.5808440193922491
lfemur -9.820876621806274 3.461231531882784 -22.607879359508424
ltibia 66.98667930992815
lfoot 2.820089632506278 -10.64246943516026
ltoes -5.282649941844447
rfemur -24.04074273631361 4.607654247024712 28.433853362597784
rtibia 44.75378316214072
rfoot 1.0181258626000322 -4.736477023489685
rtoes 1.1461975462997156
lowerback 14.18646189632003 -0.4309173919114019 0.06113357715649803
upperback -1.1657482387011862 -0.5343562551692846 1.9252382011094573
thorax -9.107540821610606 0.3031634939213151 1.479045736032797
lowerneck -20.06767968773775 -3.3972700746452174 -2.476292708310648
upperneck 12.85025553415497 -5.0599916048719855 4.915295362261305
head 7.38380089058767 -2.387001268223037 1.393938970953523
lclavicle 2.9801515526439752e-15 1.1900897868484632e-16
lhumerus -44.95133758805845 -13.517313331021441 96.4334075564699
lradius 111.10365488792735
lwrist 34.34372921513485
lhand -20.81631981125971 2.8092473995505025
lfingers 7.125019999999999
lthumb 5.670012317973146 32.17350879295583
rclavicle 2.9801381671163078e-15 1.1900166246856291e-16
rhumerus -57.15461712611432 7.106483864639312 -95.99628180698383
rradius 110.43911640492509
rwrist -15.343611798683183
rhand -15.72174395600376 38.474868823328855
rfingers 7.125019999999999
rthumb 10.579625419237766 8.392826021773029
